<?xml version="1.0" encoding="UTF-8"?>
<svg version="1.1" viewBox="0 0 1000 623" xmlns="http://www.w3.org/2000/svg">
<g transform="translate(-.60606 .25223)">
<svg width="1e3" height="623" data-background-color="black" viewBox="0 0 396 247" xmlns="http://www.w3.org/2000/svg" xmlns:xlink="http://www.w3.org/1999/xlink">
<g transform="translate(.24 -.1)">
<svg width="395.52" height="247.2" viewBox="0 0 395.52 247.2">
<svg/>
<svg width="395.52" height="247.2" viewBox="0 0 395.52 247.2">
<g transform="translate(75.544 70.202)">
<svg width="244.43" height="106.8" viewBox="0 0 244.43135999999998 106.79692628394636">
<svg width="244.43" height="106.8" viewBox="0 0 244.43135999999998 106.79692628394636">
<svg width="244.43" height="106.8" viewBox="0 0 244.43135999999998 106.79692628394636">
<svg width="244.43" height="106.8" viewBox="0 0 244.43135999999998 106.79692628394636">
<svg width="244.43" height="106.8" viewBox="0 0 244.43135999999998 106.79692628394636">
<svg width="244.43" height="106.8" viewBox="0 0 244.43135999999998 106.79692628394636">
<g>
<svg width="244.43" height="106.8" data-palette-color="black" viewBox="-2.0999999046325684 -43.599998474121094 145.44000244140625 63.54999923706055">
<path class="undefined-text-0" d="m21.2 0.5q-2.35 0-2.9-3.4-0.45-2.75-0.45-9.85l-1.25 0.95h-6.1q-1.15 2.95-2.67 5.3-1.53 2.35-3.23 3.5v0.1q0.65 0.3 1.25 0.3 0.75 0 1.43-0.25 0.67-0.25 0.82-0.25 0.35 0 0.35 0.25 0 0.35-0.7 1.2-0.8 0.8-1.7 1.22-0.9 0.43-1.7 0.43-0.65 0-1.85-0.4t-1.8-0.4q-0.75 0-1.53 0.4-0.77 0.4-1.02 0.4t-0.25-0.25q0-0.5 0.4-1.18 0.4-0.67 0.95-0.92 0.3-0.15 0.57-0.2 0.28-0.05 0.68-0.2 1.95-0.75 3.43-2.73 1.47-1.97 2.52-4.45 1.05-2.47 2.4-6.32 1.55-4.35 2.68-7.08 1.12-2.72 2.67-5.05 1.55-2.32 3.55-3.62v-0.05q-0.7-0.1-1.05-0.2-0.2-0.05-1.22-0.2-1.03-0.15-2.63-0.15-2.7 0-4.52 1-1.83 1-3.43 3.25-0.5 0.8-0.8 0.8t-0.3-0.4l0.05-0.5q0.75-3.05 3.43-4.9 2.67-1.85 6.22-1.85 1.45 0 4.35 0.5 2.7 0.5 3.85 0.5 1.3 0 2.75-0.5v0.05q-1.35 2.25-2.1 7.02-0.75 4.78-0.75 11.83 0 7.25 0.3 9.8 0.1 1.45 0.43 2.17 0.32 0.73 1.12 0.73 0.5 0 0.98-0.25 0.47-0.25 1.27-0.75 0.95-0.65 1.2-0.65 0.3 0 0.3 0.2 0 0.4-0.3 0.95-0.95 1.7-2.57 2.9-1.63 1.2-3.13 1.2zm-9.8-15.3h6.5q0.1-4.6 0.65-9.13 0.55-4.52 1.4-7.37h-0.05q-1.95 0.9-3.77 4.35-1.83 3.45-4.18 10.45l-0.55 1.7zm18.55 34.75q-1.95 0-3.3-1.07-1.35-1.08-2-2.73t-0.65-3.4q0-1.65 0.6-2.62 0.6-0.98 1.3-1.33t1.05-0.35q0.25 0 0.25 0.5 0 7.8 5 7.8 3.55 0 5.55-4.25 0.75-1.65 1.4-4.15t1.75-7.8q0.45-2.15 0.5-2.45l1.5-6.9h-0.05q-1.2 2.5-2.85 4.63-1.65 2.12-3.25 3.39-1.6 1.28-2.6 1.28-1.1 0-1.53-1.68-0.42-1.67-0.37-4.07l0.4-12.5q0.05-0.4 0.05-1.1 0-0.8-0.18-1.2-0.17-0.4-0.67-0.4-0.65 0-1.45 0.85t-1.4 2.2q-0.3 0.85-0.65 0.85-0.4 0-0.4-0.6 0-1.25 0.9-2.85t2.27-2.7q1.38-1.1 2.63-1.1 1.4 0 1.9 1.4t0.5 3.8l-0.05 1.6-0.45 8.25-0.05 1.65q0 1.6 0.22 2.3 0.23 0.7 0.83 0.7 1.1 0 2.6-2.1t2.85-5.15 2-5.7l0.75-3.05q0.45-1.85 1.72-2.78 1.28-0.92 2.33-0.92 0.4 0 0.4 0.25t-0.18 0.7q-0.17 0.45-0.27 0.65-0.4 1.05-0.7 2.27-0.3 1.23-0.6 2.93l-2.65 14.2-0.5 2.85q-0.6 3.5-1.1 5.53-0.5 2.02-1.4 4-0.9 1.97-2.55 4.07-2.25 3-4.7 4.65t-4.7 1.65zm25.5-19.45q-2.11 0-3.18-1.63-1.07-1.62-1.07-4.52 0-4.05 1.94-8.3 1.95-4.25 4.83-7.05 2.87-2.8 5.48-2.8 1.94 0 2.99 1.72 1.06 1.73 1.06 4.53 0 3.75-1.83 8t-4.62 7.15q-2.81 2.9-5.6 2.9zm2.44-3.3q1.66 0 3-1.68 1.35-1.67 2.16-4.45 0.79-2.77 0.79-5.87 0-5.7-2.95-5.7-1.84 0-3.22 2-1.37 2-2.1 4.87-0.73 2.88-0.73 5.38 0 2.4 0.73 3.92 0.73 1.53 2.32 1.53zm16.2 3.3q-0.8 0-1.9-0.2-0.9-0.2-1.45-0.2-0.4 0-0.7 0.05t-0.4 0.05h-0.05q0.45-1.2 0.65-2.28 0.2-1.07 0.35-2.02l3-17.9q1.1-7.05 2.78-11.45 1.67-4.4 4.27-6.85 1.45-1.35 2.7-1.85t3.5-0.9q0.7-0.15 1.28-0.35 0.57-0.2 0.77-0.2 0.3 0 0.3 0.4 0 0.7-0.95 1.45-0.5 0.4-0.92 0.55-0.43 0.15-0.8 0.22-0.38 0.08-0.53 0.13-1.55 0.2-2.52 0.75-0.98 0.55-1.98 1.95-1.5 2.2-2.5 5.72-1 3.53-2.05 10.03l-1.2 7.4h0.05q1.85-3.35 4.53-6.08 2.67-2.72 4.62-2.72 1.2 0 1.88 1.22 0.67 1.23 0.67 3.63 0 5.1-1.95 9.6t-5.05 7.17q-3.1 2.68-6.4 2.68zm2.65-3q2.1 0 3.73-2.25 1.62-2.25 2.47-5.6t0.85-6.4q0-1.65-0.25-2.3t-0.9-0.65q-1.25 0-3.02 2.02-1.78 2.03-3.28 5.1-1.5 3.08-2.05 6.08l-0.45 3.1q1.3 0.9 2.9 0.9zm16.25 3q-2.55 0-2.55-4.85 0-4.65 2.03-9.18 2.02-4.52 5.47-7.4 3.45-2.87 7.45-2.87 2.05 0 3.55 0.65-0.65 2.55-0.9 3.75l-1.05 5.4q-1.4 6.4-1.7 8.85-0.05 0.35-0.05 0.85 0 1.1 0.65 1.1 0.8 0 1.5-1.03 0.7-1.02 1.6-2.92 0.05-0.05 0.18-0.3 0.12-0.25 0.32-0.25 0.3 0 0.3 0.6l-0.1 0.8q-0.35 1.65-1.42 3.25-1.08 1.6-2.4 2.57-1.33 0.98-2.38 0.98-1.75 0-1.75-2.85 0-1.1 0.25-2.25l0.85-4.35h-0.05q-2.4 4.2-5.12 6.82-2.73 2.63-4.68 2.63zm2.35-4.1q1.4 0 3.22-2.18 1.83-2.17 3.41-5.32 1.57-3.15 2.17-5.65l0.8-3.2q-1.5-1-3.15-1-2.15 0-3.92 2.47-1.78 2.48-2.78 6-1 3.53-1 6.38 0 1.25 0.28 1.87 0.27 0.63 0.97 0.63zm19.05 4.1q-0.45 0-0.45-0.3 0-0.15 0.22-0.73 0.23-0.57 0.63-2.47 0.55-2.35 1.02-5.05 0.48-2.7 1.38-8.8 0.3-1.9 0.3-2.65 0-0.65-0.3-0.65-0.5 0-1.1 0.8t-1.45 2.2q-0.25 0.45-0.45 0.77-0.2 0.33-0.33 0.48-0.12 0.15-0.27 0.15-0.4 0-0.4-0.55 0-1 1.1-2.83 1.1-1.82 2.6-3.25 1.5-1.42 2.7-1.42 0.8 0 1.15 0.72 0.35 0.73 0.35 1.83 0 1.05-0.5 4.45l-0.25 1.75h0.05q2.45-4.35 4.77-6.55 2.33-2.2 4.43-2.2 1 0 1.45 0.62 0.45 0.63 0.45 2.08 0 1.4-0.45 3.95l-0.25 1.4h0.1q2.25-3.95 4.52-6 2.28-2.05 4.08-2.05 2.1 0 2.1 3 0 1.05-0.45 3.65l-1.15 6q-1.25 6.35-1.25 7.2 0 0.9 0.75 0.9 0.85 0 1.55-1.12 0.7-1.13 1.5-2.98 0.2-0.55 0.5-0.55t0.3 0.6q0 0.45-0.05 0.8-0.35 1.8-1.43 3.37-1.07 1.58-2.42 2.5-1.35 0.93-2.45 0.93-1.8 0-1.8-2.7 0-2.05 1.25-8 0.15-0.75 0.67-3.5 0.53-2.75 0.63-4.6 0-0.85-0.15-1.25t-0.75-0.4q-1.15 0-2.58 1.65-1.42 1.65-2.67 4.15t-1.9 4.9l-1.55 7.95q-0.05 0.6-1.13 1.2-1.07 0.6-1.72 0.6-0.7 0-0.7-0.6 0.45-1.95 1.65-8.53 1.2-6.57 1.4-9.67v-0.5q0-0.55-0.15-0.85t-0.65-0.3q-1.35 0-3.03 2.07-1.67 2.08-3 5.05-1.32 2.98-1.72 5.38l-0.8 4.35q-0.3 1.3-1.6 2.45t-2.3 1.15z" fill="#fbfbfb" data-fill-palette-color="primary"/>
</svg>
</g>
</svg>
</svg>
</svg>
</svg>
</svg>
</svg>
</g>
<path d="m0 123.6c0-68.262 55.338-123.6 123.6-123.6 43.991 0 82.615 22.982 104.52 57.595h-5.746c-21.31-31.826-57.595-52.78-98.773-52.779-65.603 0-118.78 53.182-118.78 118.78 0 65.603 53.182 118.78 118.78 118.78 41.178 0 77.463-20.953 98.773-52.779h5.746c-21.904 34.613-60.528 57.595-104.52 57.595-68.262 0-123.6-55.338-123.6-123.6z" fill="#fbfbfb" stroke="transparent" data-fill-palette-color="tertiary"/>
</svg>
</svg>
<rect width="395.52" height="247.2" fill="none" visibility="hidden"/>
</g>
</svg>
</g>
</svg>
